HIERARCHY
ROOT Hips
{
	OFFSET -3.958830 18.904000 13.208200
	CHANNELS 6 Xposition Yposition Zposition Zrotation Yrotation Xrotation 
	JOINT LHipJoint
	{
		OFFSET 0.000000 0.000000 0.000000
		CHANNELS 3 Zrotation Yrotation Xrotation
		JOINT LeftUpLeg
		{
			OFFSET 1.800000 -1.400000 0.085000
			CHANNELS 3 Zrotation Yrotation Xrotation
			JOINT LeftLeg
			{
				OFFSET 2.215000 -6.000000 0.000000
				CHANNELS 3 Zrotation Yrotation Xrotation
				JOINT LeftFoot
				{
					OFFSET 2.500000 -6.900000 0.000000
					CHANNELS 3 Zrotation Yrotation Xrotation
					JOINT LeftToeBase
					{
						OFFSET 0.200000 -0.500000 1.950000
						CHANNELS 3 Zrotation Yrotation Xrotation
						End Site
						{
							OFFSET 0.000000 0.000000 0.000000
						}
					}
				}
			}
		}
	}
	JOINT RHipJoint
	{
		OFFSET 0.000000 0.000000 0.000000
		CHANNELS 3 Zrotation Yrotation Xrotation
		JOINT RightUpLeg
		{
			OFFSET -1.800000 -1.400000 0.085000
			CHANNELS 3 Zrotation Yrotation Xrotation
			JOINT RightLeg
			{
				OFFSET -2.215000 -6.000000 0.000000
				CHANNELS 3 Zrotation Yrotation Xrotation
				JOINT RightFoot
				{
					OFFSET -2.500000 -6.900000 0.000000
					CHANNELS 3 Zrotation Yrotation Xrotation
					JOINT RightToeBase
					{
						OFFSET -0.200000 -0.500000 1.950000
						CHANNELS 3 Zrotation Yrotation Xrotation
						End Site
						{
							OFFSET 0.000000 0.000000 0.000000
						}
					}
				}
			}
		}
	}
	JOINT LowerBack
	{
		OFFSET 0.000000 0.000000 0.000000
		CHANNELS 3 Zrotation Yrotation Xrotation
		JOINT Spine
		{
			OFFSET -0.087000 1.940000 -0.288900
			CHANNELS 3 Zrotation Yrotation Xrotation
			JOINT Spine1
			{
				OFFSET 0.000000 1.950000 0.060000
				CHANNELS 3 Zrotation Yrotation Xrotation
				JOINT Neck
				{
					OFFSET 0.000000 0.000000 0.000000
					CHANNELS 3 Zrotation Yrotation Xrotation
					JOINT Neck1
					{
						OFFSET 0.000000 1.600000 0.340000
						CHANNELS 3 Zrotation Yrotation Xrotation
						JOINT Head
						{
							OFFSET 0.000000 1.667000 -0.240000
							CHANNELS 3 Zrotation Yrotation Xrotation
							End Site
							{
								OFFSET 0.000000 0.000000 0.000000
							}
						}
					}
				}
				JOINT LeftShoulder
				{
					OFFSET 0.000000 0.000000 0.000000
					CHANNELS 3 Zrotation Yrotation Xrotation
					JOINT LeftArm
					{
						OFFSET 2.700000 1.550000 -0.730000
						CHANNELS 3 Zrotation Yrotation Xrotation
						JOINT LeftForeArm
						{
							OFFSET 5.450000 0.000000 0.000000
							CHANNELS 3 Zrotation Yrotation Xrotation
							JOINT LeftHand
							{
								OFFSET 3.450000 0.000000 0.000000
								CHANNELS 3 Zrotation Yrotation Xrotation
								JOINT LeftHandIndex1
								{
									OFFSET 0.750000 0.000000 0.000000
									CHANNELS 3 Zrotation Yrotation Xrotation
									End Site
									{
										OFFSET 0.000000 0.000000 0.000000
									}
								}
							}
						}
					}
				}
				JOINT RightShoulder
				{
					OFFSET 0.000000 0.000000 0.000000
					CHANNELS 3 Zrotation Yrotation Xrotation
					JOINT RightArm
					{
						OFFSET -2.700000 1.550000 -0.730000
						CHANNELS 3 Zrotation Yrotation Xrotation
						JOINT RightForeArm
						{
							OFFSET -5.450000 0.000000 0.000000
							CHANNELS 3 Zrotation Yrotation Xrotation
							JOINT RightHand
							{
								OFFSET -3.450000 0.000000 0.000000
								CHANNELS 3 Zrotation Yrotation Xrotation
								JOINT RightHandIndex1
								{
									OFFSET -0.750000 0.000000 0.000000
									CHANNELS 3 Zrotation Yrotation Xrotation
									End Site
									{
										OFFSET 0.000000 0.000000 0.000000
									}
								}
							}
						}
					}
				}
			}
		}
	}
}
MOTION
Frames: 4
Frame Time: 0.016667
0.367360 16.636980 -2.365650 -8.589125 -0.990089 4.059162 -15.179740 11.506194 1.714957 4.788009 -1.967482 -11.507013 -6.385062 4.264689 4.871662 -0.792016 3.744853 3.454767 0.117520 -0.074200 0.033640 19.033419 -6.839857 6.995564 4.553107 22.814444 -80.045872 -9.150686 -11.201413 94.530684 -2.510908 -14.592776 -0.236729 0.167150 0.550090 0.154350 -4.661633 -3.369766 -8.844573 21.828139 -9.508497 13.827644 -5.446151 -4.229515 6.660783 0.957086 -5.790045 -8.378174 -14.276133 4.283140 32.791266 -4.368230 3.888630 -3.796990 -23.523018 -13.616738 2.294220 -53.173996 -28.083836 -0.310022 12.123377 -68.097380 -12.341077 -3.859740 2.755739 0.358300 0.364490 -0.221340 0.144700 20.721473 12.908015 5.615853 57.940539 1.542227 -7.907137 2.374853 19.266248 -1.167382 2.069731 -1.258935 -0.422390 0.395220 0.206150 -0.145720 
0.364550 16.640110 -2.362050 -8.668418 -1.197895 3.994064 -15.179089 11.530823 1.731996 4.935244 -1.963972 -11.374786 -6.415375 4.273391 4.820733 -0.782882 3.750919 3.448774 0.125660 -0.061440 0.042080 19.023329 -6.870643 6.969556 4.716735 22.567146 -79.435279 -8.598123 -11.396749 93.229005 -2.474106 -14.421122 -0.197544 0.168770 0.538130 0.159020 -4.649458 -3.367768 -8.844467 21.734819 -9.458539 13.940879 -5.247147 -4.227241 6.882682 0.974134 -5.682794 -8.572787 -14.056138 4.236132 32.861521 -4.531750 4.029820 -4.070500 -23.587406 -14.247862 2.538776 -52.878897 -27.897403 -0.805817 13.120795 -68.579839 -13.219457 -3.847535 2.745221 0.360910 0.359800 -0.208730 0.145050 20.792226 13.511152 5.839274 57.821718 1.498621 -7.999138 1.992689 19.337513 -1.208519 2.066095 -1.263435 -0.413160 0.390010 0.199050 -0.146160 
0.358630 16.643550 -2.351960 -8.749871 -1.599356 3.997515 -15.182176 11.562867 1.751490 5.136809 -1.969749 -11.236648 -6.452645 4.293454 4.810601 -0.758348 3.756226 3.446678 0.130670 -0.044340 0.040240 19.007685 -6.897644 6.950944 4.586637 22.199289 -78.987603 -7.567873 -11.736944 91.098017 -2.403130 -14.146645 -0.128759 0.168520 0.534420 0.166950 -4.625692 -3.375338 -8.847041 21.464756 -9.337183 14.018390 -4.816174 -4.210208 7.201119 0.956246 -5.484036 -8.883034 -13.558262 4.217715 32.690178 -4.690540 4.289350 -4.148100 -23.928822 -15.332419 2.929468 -52.185036 -27.487211 -1.659353 14.620108 -69.248505 -14.518446 -3.835972 2.736342 0.349090 0.364250 -0.199180 0.152610 21.239732 14.514245 6.249543 57.286838 1.211828 -8.188940 1.477332 19.625509 -1.275751 2.057754 -1.279289 -0.396870 0.380680 0.187690 -0.137230 
0.349920 16.645760 -2.333740 -8.694831 -1.611262 3.869676 -15.184629 11.648289 1.797087 5.283189 -1.970722 -11.059205 -6.529467 4.354990 4.959165 -0.729380 3.782264 3.444094 0.119260 -0.051180 0.032520 18.975658 -6.987193 6.859802 4.584996 21.173029 -77.558663 -6.258582 -12.051996 87.663083 -2.272456 -13.671109 -0.012322 0.155590 0.539390 0.173100 -4.572608 -3.410294 -8.834782 20.911212 -9.200786 14.072031 -4.262707 -4.306797 7.553189 0.983233 -5.112807 -9.282602 -12.742903 4.057111 32.595127 -4.942290 4.582890 -3.842190 -24.650210 -16.775012 3.422105 -50.984710 -26.872224 -2.699308 15.020630 -69.874823 -15.121517 -3.830858 2.744980 0.335680 0.373780 -0.198470 0.157770 22.000370 15.740982 6.834406 56.399471 0.597338 -8.461470 1.214508 19.979835 -1.319075 2.049294 -1.295173 -0.388840 0.370430 0.182360 -0.130070 
